# xmcd
#
# Track frame offsets:
#	150
#	16717
#	32572
#	48705
#	70530
#	87552
#	99817
#	115715
#	135852
#	150532
#	177207
#
# Disc length: 2555 seconds
#
# Revision: 0
# Processed by: cddbd v1.4PL0 Copyright (c) Steve Scherf et al.
# Submitted via: dBpowerAMP V4.0
#
DISCID=7609f90b
DTITLE=Valerie - Only When You Smile
DYEAR=2002
DGENRE=Country
TTITLE0=Only When You Smile
TTITLE1=Watching You Dream
TTITLE2=Sweetened Lies
TTITLE3=Loving You All Of My Life
TTITLE4=I Feel The Sun
TTITLE5=I'm Down To My Last Cigarette
TTITLE6=Till The Day I Found You
TTITLE7=All My Love
TTITLE8=C'est La Vie
TTITLE9=Swee Dreams
TTITLE10=Save The Last Dance For Me
EXTD=
EXTT0=
EXTT1=
EXTT2=
EXTT3=
EXTT4=
EXTT5=
EXTT6=
EXTT7=
EXTT8=
EXTT9=
EXTT10=
PLAYORDER=
